<svg xmlns="http://www.w3.org/2000/svg" width="32" height="32" viewBox="0 0 8.467 8.467" id="scroll-down"><path d="m -67.557504,132.58035 c -1.101718,0 -1.997778,0.89559 -1.997778,1.99731 v 3.41374 c 0,1.10172 0.89606,1.9973 1.997778,1.9973 h 1.463101 c 1.101719,0 1.997302,-0.89558 1.997302,-1.9973 v -3.41374 c 0,-1.10172 -0.895583,-1.99731 -1.997302,-1.99731 z m 0,0.58325 h 1.463101 c 0.788968,0 1.414061,0.62509 1.414061,1.41406 v 3.41374 c 0,0.78896 -0.625093,1.41453 -1.414061,1.41453 h -1.463101 c -0.788969,0 -1.414537,-0.62557 -1.414537,-1.41453 v -3.41374 c 0,-0.78897 0.625568,-1.41406 1.414537,-1.41406 z m 0.727028,0.0571 a 0.24379519,0.24379519 0 0 0 -0.239487,0.24662 v 0.5204 h -0.325662 l 0.570385,1.01651 0.113316,-0.2014 0.458975,-0.81511 h -0.329472 v -0.5204 a 0.24379519,0.24379519 0 0 0 -0.248055,-0.24662 z m -1.725917,2.08967 a 0.24411119,0.24411119 0 0 0 0.02333,0.48754 h 3.413744 a 0.24383083,0.24383083 0 1 0 0,-0.48754 h -3.413743 a 0.24379519,0.24379519 0 0 0 -0.02333,0 z" color="#000" font-family="sans-serif" font-weight="400" overflow="visible" transform="translate(71.06 -132.051)" style="line-height:normal;font-variant-ligatures:normal;font-variant-position:normal;font-variant-caps:normal;font-variant-numeric:normal;font-variant-alternates:normal;font-feature-settings:normal;text-indent:0;text-align:start;text-decoration-line:none;text-decoration-style:solid;text-decoration-color:#000;text-transform:none;text-orientation:mixed;shape-padding:0;isolation:auto;mix-blend-mode:normal"></path></svg>